nColumns=19
nRows=85
DataType=double
version=3
OpenSimVersion=4.1
endheader
time	ground_force_calcn_r_vx	ground_force_calcn_r_vy	ground_force_calcn_r_vz	ground_force_calcn_r_px	ground_force_calcn_r_py	ground_force_calcn_r_pz	ground_force_calcn_r_mx	ground_force_calcn_r_my	ground_force_calcn_r_mz	ground_force_calcn_l_vx	ground_force_calcn_l_vy	ground_force_calcn_l_vz	ground_force_calcn_l_px	ground_force_calcn_l_py	ground_force_calcn_l_pz	ground_force_calcn_l_mx	ground_force_calcn_l_my	ground_force_calcn_l_mz
1.42	-249.152	353.497	-44.7216	-0.115955	0	-0.389705	-1.01017	1.43323	-0.181321	-164.624	276.375	27.0571	-0.0844599	0	-0.748322	1.36228	-2.28704	-0.2239
1.43	-416.903	677.27	-93.9121	-0.124083	0	-0.390016	-1.38726	2.25364	-0.312496	-337.679	587.628	64.4432	-0.0908166	0	-0.757438	1.50715	-2.62274	-0.287626
1.44	-200.922	541.961	-68.0363	-0.136383	0	-0.392755	-0.67035	1.80818	-0.226995	-221.919	581.769	60.629	-0.107954	0	-0.752191	0.910923	-2.38802	-0.248867
1.45	-119.803	538.207	-42.3735	-0.169816	0	-0.401262	0.274329	-1.2324	0.0970277	-122.015	757.716	22.6686	-0.164786	0	-0.741857	-0.383808	2.38346	0.0713063
1.46	-72.5175	801.312	-16.1205	-0.221753	0	-0.416068	0.297136	-3.28333	0.0660528	-15.47	1101.19	-10.8046	-0.206275	0	-0.735274	-0.0822993	5.85826	-0.05748
1.47	-52.5358	962.951	-43.794	-0.241418	0	-0.419644	0.177659	-3.25639	0.148097	-75.2892	933.781	19.9537	-0.20215	0	-0.736584	-0.509989	6.32518	0.135161
1.48	-162.796	792.574	-72.9325	-0.223656	0	-0.415832	0.325208	-1.58328	0.145693	-221.345	609.405	49.4704	-0.164675	0	-0.74095	-1.13433	3.12303	0.253521
1.49	-212.168	617.443	-67.0369	-0.196576	0	-0.411907	0.369639	-1.07571	0.116792	-254.109	476.774	54.0174	-0.134306	0	-0.742816	-0.884933	1.66036	0.188115
1.5	-164.913	529.526	-58.3006	-0.184089	0	-0.408976	0.578506	-1.85755	0.204516	-208.894	432.788	47.4777	-0.12591	0	-0.742509	-1.10096	2.28097	0.250227
1.51	-139.314	510.174	-52.3943	-0.179819	0	-0.408096	0.758115	-2.77625	0.285118	-179.038	424.198	46.0771	-0.123065	0	-0.742653	-1.33402	3.16072	0.343322
1.52	-147.269	493.31	-51.0715	-0.17374	0	-0.407185	0.959819	-3.21512	0.332856	-188	448.716	48.5978	-0.121985	0	-0.742862	-1.58935	3.79345	0.410846
1.53	-158.153	472.704	-50.8294	-0.168068	0	-0.406264	1.15551	-3.45369	0.371372	-193.474	488.079	45.4996	-0.125074	0	-0.741863	-1.88071	4.74448	0.442289
1.54	-146.83	467.698	-48.7953	-0.169442	0	-0.406547	1.32393	-4.21709	0.439972	-167.406	520.903	42.0268	-0.132063	0	-0.740065	-1.84843	5.75159	0.464042
1.55	-114.836	484.76	-44.4118	-0.179327	0	-0.409082	1.28267	-5.41455	0.49606	-127.712	546.022	44.0594	-0.140904	0	-0.738757	-1.46695	6.2718	0.506081
1.56	-81.14	501.603	-41.5564	-0.190963	0	-0.412308	1.00284	-6.1995	0.513612	-98.8487	553.329	48.4603	-0.147536	0	-0.73825	-1.07304	6.00659	0.526055
1.57	-61.1635	491.242	-44.0767	-0.198005	0	-0.413931	0.755794	-6.07025	0.544653	-93.2069	534.194	52.0953	-0.149232	0	-0.738398	-0.905795	5.19136	0.506268
1.58	-54.7341	462.347	-45.1497	-0.200663	0	-0.414843	0.674106	-5.69427	0.556064	-101.952	502.259	51.8631	-0.147285	0	-0.738614	-0.928365	4.57351	0.47226
1.59	-51.9785	433.062	-41.1262	-0.201821	0	-0.416428	0.682526	-5.68651	0.540026	-108.321	478.58	46.7626	-0.146004	0	-0.738179	-1.02987	4.55013	0.444598
1.6	-50.1669	406.242	-35.8634	-0.202199	0	-0.418545	0.739652	-5.98955	0.528763	-105.334	468.995	40.3575	-0.147498	0	-0.737127	-1.048	4.66616	0.401528
1.61	-50.0496	384.328	-30.0775	-0.202117	0	-0.421303	0.860188	-6.60534	0.516934	-95.9006	470.07	36.6842	-0.150771	0	-0.735956	-0.921963	4.51913	0.352672
1.62	-50.7059	369.207	-24.0101	-0.202554	0	-0.424448	1.00446	-7.31377	0.475626	-84.2639	481.341	35.2623	-0.155246	0	-0.735146	-0.734528	4.19585	0.307381
1.63	-49.796	360.866	-19.5096	-0.204259	0	-0.427476	1.08764	-7.88203	0.426128	-68.8366	504.788	34.4943	-0.161633	0	-0.734423	-0.524493	3.84618	0.262826
1.64	-45.4907	358.25	-16.9581	-0.207488	0	-0.430285	1.04996	-8.26865	0.391404	-50.6321	530.41	37.6138	-0.168212	0	-0.734112	-0.303401	3.17835	0.225391
1.65	-38.2381	362.629	-15.4948	-0.211906	0	-0.432762	0.895326	-8.49078	0.362803	-33.9065	548.443	44.4544	-0.172896	0	-0.734848	-0.13967	2.25918	0.18312
1.66	-29.6436	374.611	-15.1433	-0.216465	0	-0.434857	0.666902	-8.42775	0.340684	-20.7374	561.45	49.6811	-0.175232	0	-0.736038	-0.0566541	1.53387	0.135728
1.67	-21.0083	389.293	-16.3111	-0.219958	0	-0.43603	0.435951	-8.07835	0.338478	-18.3255	563.893	51.7276	-0.174474	0	-0.737251	-0.0348826	1.07337	0.0984636
1.68	-14.8815	403.988	-18.6749	-0.221001	0	-0.435332	0.275559	-7.4806	0.3458	-22.9829	557.79	50.3057	-0.172178	0	-0.737956	-0.0367003	0.890707	0.0803307
1.69	-13.9658	414.714	-23.6316	-0.218878	0	-0.432907	0.223239	-6.62904	0.377741	-24.1794	557.739	48.9023	-0.170531	0	-0.738505	-0.0365196	0.842386	0.0738601
1.7	-14.6071	424.543	-30.4359	-0.214114	0	-0.42974	0.197581	-5.74251	0.411685	-19.7553	566.914	51.0676	-0.169582	0	-0.739441	-0.024744	0.710075	0.0639635
1.71	-14.6334	438.716	-37.2544	-0.2081	0	-0.426678	0.167821	-5.03135	0.427246	-13.8861	580.222	55.9356	-0.167995	0	-0.740655	-0.0120664	0.504185	0.0486055
1.72	-14.6385	456.088	-42.7019	-0.202099	0	-0.423948	0.1446	-4.50524	0.42181	-11.2543	590.684	61.6064	-0.164965	0	-0.741868	-0.00776736	0.407672	0.0425189
1.73	-14.3501	473.994	-48.7485	-0.196681	0	-0.421403	0.119743	-3.9552	0.406777	-12.3956	593.861	66.4743	-0.161098	0	-0.7429	-0.013126	0.628857	0.0703915
1.74	-12.654	489.468	-56.7979	-0.192001	0	-0.418906	0.0835739	-3.23271	0.375124	-15.1059	591.473	69.2773	-0.157628	0	-0.743523	-0.0283601	1.11044	0.130062
1.75	-8.86572	500.9	-64.7953	-0.188532	0	-0.416946	0.0430876	-2.43438	0.314907	-15.3021	587.608	70.8353	-0.155369	0	-0.744021	-0.0452972	1.73943	0.209686
1.76	-3.31755	510.115	-71.1311	-0.186522	0	-0.41557	0.0111318	-1.71165	0.238675	-12.164	584.093	72.88	-0.154028	0	-0.74441	-0.0476081	2.28605	0.285241
1.77	2.33799	517.23	-76.7999	-0.185242	0	-0.414407	-0.0045898	-1.0154	0.150769	-7.77613	580.383	75.4339	-0.153061	0	-0.744608	-0.035953	2.68341	0.348769
1.78	7.03397	520.582	-81.8883	-0.184071	0	-0.413443	-0.00458205	-0.339116	0.0533435	-2.90621	577.4	77.4678	-0.15272	0	-0.74458	-0.0151455	3.00909	0.403719
1.79	11.2751	521.519	-85.9994	-0.182764	0	-0.412448	0.00740065	0.342311	-0.0564477	2.6781	575.524	79.0356	-0.15247	0	-0.744368	0.0151145	3.24811	0.446056
1.8	14.8121	520.484	-90.2564	-0.180736	0	-0.41117	0.0289494	1.01726	-0.176401	6.87805	572.616	80.0717	-0.151521	0	-0.744074	0.0413659	3.44382	0.481566
1.81	16.2576	516.608	-93.9574	-0.177725	0	-0.409832	0.0496886	1.57892	-0.287165	8.25843	567.023	79.7712	-0.14964	0	-0.743649	0.0523088	3.59152	0.50527
1.82	15.4931	512.059	-96.5933	-0.173896	0	-0.408333	0.0595282	1.96746	-0.371136	7.44289	561.275	78.7506	-0.146532	0	-0.74354	0.0470754	3.55	0.498089
1.83	13.5039	508.039	-98.2983	-0.169468	0	-0.407017	0.0574203	2.16025	-0.417978	3.79295	553.862	80.1017	-0.141686	0	-0.744135	0.0207401	3.02855	0.438
1.84	10.5785	502.5	-98.8162	-0.164563	0	-0.405996	0.0468305	2.22455	-0.437456	-2.32019	542.616	83.2231	-0.135311	0	-0.745103	-0.00903865	2.11385	0.324208
1.85	6.68794	493.665	-98.6492	-0.159114	0	-0.405103	0.0296582	2.1892	-0.437468	-9.80494	530.03	85.4995	-0.128184	0	-0.746003	-0.0213551	1.1544	0.186217
1.86	2.70191	483.685	-98.5576	-0.153653	0	-0.404324	0.0112509	2.01408	-0.410398	-17.5457	517.484	86.3865	-0.120814	0	-0.746593	-0.0102484	0.30226	0.050458
1.87	0.417568	474.479	-99.1406	-0.149079	0	-0.4038	0.00164221	1.86603	-0.389899	-24.9904	506.232	85.7509	-0.113969	0	-0.746612	0.0170819	-0.346028	-0.0586138
1.88	0.330494	466.61	-100.594	-0.145836	0	-0.403342	0.00128211	1.81017	-0.390245	-29.5189	498.905	84.6125	-0.109209	0	-0.74642	0.0462766	-0.782131	-0.132647
1.89	0.883883	458.804	-101.709	-0.143465	0	-0.403327	0.00329212	1.70887	-0.378828	-30.7728	493.977	84.0433	-0.106348	0	-0.746278	0.0673832	-1.08166	-0.18403
1.9	0.95073	449.881	-101.603	-0.141447	0	-0.403795	0.00300864	1.42367	-0.321529	-31.7663	488.092	83.6829	-0.103847	0	-0.74606	0.0898631	-1.38075	-0.236729
1.91	0.169173	441.086	-100.089	-0.139714	0	-0.404382	0.000366709	0.956125	-0.216959	-33.0241	481.062	83.2618	-0.101393	0	-0.745956	0.112969	-1.64561	-0.284822
1.92	-1.66945	434.029	-96.8688	-0.138132	0	-0.405113	-0.00158367	0.411729	-0.0918918	-34.1306	473.818	83.1073	-0.0993815	0	-0.746147	0.13452	-1.86747	-0.327553
1.93	-3.89094	429.781	-93.3218	-0.13681	0	-0.405501	0.000369081	-0.0407675	0.00885217	-34.851	467.395	83.5887	-0.097744	0	-0.746636	0.153099	-2.05324	-0.367201
1.94	-5.46018	428.019	-91.2154	-0.13554	0	-0.405617	0.00370358	-0.29032	0.0618704	-35.4877	463.266	84.8697	-0.096213	0	-0.747148	0.166657	-2.17559	-0.398564
1.95	-7.05361	428.303	-90.6968	-0.13413	0	-0.405482	0.00535517	-0.325173	0.068858	-36.8426	462.281	86.5439	-0.0948166	0	-0.74755	0.180108	-2.2599	-0.423076
1.96	-9.4287	429.476	-90.7504	-0.132624	0	-0.405282	0.00529845	-0.241344	0.0509972	-38.6863	463.492	87.4048	-0.0934447	0	-0.748043	0.188226	-2.2551	-0.425263
1.97	-12.8074	430.722	-90.7228	-0.131067	0	-0.405181	0.00356279	-0.119819	0.0252375	-40.2653	466.442	87.389	-0.0921336	0	-0.748595	0.182138	-2.10993	-0.3953
1.98	-16.9121	431.403	-89.7753	-0.129617	0	-0.405317	0.00352935	-0.0900289	0.0187351	-41.4981	470.962	86.9654	-0.0909129	0	-0.749183	0.169324	-1.92167	-0.354845
1.99	-21.1429	432.787	-88.1538	-0.128319	0	-0.405571	0.010253	-0.209875	0.0427491	-42.408	476.413	86.3879	-0.0899369	0	-0.749834	0.154368	-1.73417	-0.314457
2	-25.5068	435.323	-86.7484	-0.127206	0	-0.405725	0.0235654	-0.402189	0.0801457	-42.6311	481.964	85.7906	-0.0891912	0	-0.750422	0.138453	-1.56527	-0.278622
2.01	-29.9085	438.679	-86.1743	-0.126057	0	-0.405914	0.0413317	-0.606226	0.119087	-41.6833	488.334	85.2264	-0.088545	0	-0.750974	0.128463	-1.50499	-0.262658
2.02	-33.9896	443.757	-86.2155	-0.124944	0	-0.405893	0.059758	-0.78018	0.151578	-39.8485	495.829	84.4927	-0.0879613	0	-0.751438	0.114706	-1.42727	-0.243217
2.03	-36.8171	451.693	-86.9006	-0.124122	0	-0.405533	0.0738428	-0.905947	0.174294	-38.8016	503.42	83.435	-0.0872054	0	-0.751835	0.100011	-1.29756	-0.215052
2.04	-38.355	461.261	-88.0642	-0.123454	0	-0.404979	0.0808152	-0.97189	0.185554	-39.4699	508.809	81.6573	-0.0862518	0	-0.751894	0.0968443	-1.24842	-0.200356
2.05	-40.6331	469.221	-89.4412	-0.122557	0	-0.404236	0.080439	-0.92889	0.177062	-41.515	511.115	78.548	-0.0850983	0	-0.751784	0.092217	-1.13534	-0.174478
2.06	-44.418	472.586	-89.9399	-0.121309	0	-0.403316	0.0720289	-0.766352	0.145848	-44.7057	510.439	73.6069	-0.0840202	0	-0.751417	0.0810029	-0.924872	-0.133369
2.07	-48.7625	468.936	-87.8031	-0.11968	0	-0.402631	0.058709	-0.564589	0.105713	-48.9099	506.847	66.9041	-0.0828034	0	-0.750722	0.0639435	-0.662639	-0.0874687
2.08	-53.8181	456.926	-82.0673	-0.117682	0	-0.402219	0.0438871	-0.37261	0.0669235	-53.7982	499.803	59.2875	-0.0813877	0	-0.750017	0.0433181	-0.40244	-0.0477381
2.09	-59.7372	434.789	-72.6007	-0.115173	0	-0.401864	0.0295166	-0.214833	0.0358726	-59.2269	488.497	51.9045	-0.0799847	0	-0.749482	0.0305568	-0.252029	-0.0267789
2.1	-64.8493	401.516	-59.8871	-0.111943	0	-0.40165	0.013792	-0.0853937	0.0127367	-64.3806	471.547	45.2494	-0.078417	0	-0.749289	0.0273864	-0.200588	-0.0192483
2.11	-65.4902	359.218	-45.1069	-0.108311	0	-0.401441	0.00646488	-0.0354602	0.00445273	-67.4891	444.088	38.4624	-0.0765222	0	-0.749316	0.0350114	-0.23038	-0.0199532
2.12	-57.125	302.527	-28.0594	-0.104042	0	-0.401318	0.013763	-0.0728872	0.00676029	-64.9218	398.696	30.324	-0.0739005	0	-0.749168	0.0550891	-0.338312	-0.0257314
2.13	-38.2112	220.816	-8.27763	-0.0975275	0	-0.40261	0.033419	-0.193123	0.00723951	-52.3436	329.165	19.0196	-0.0701952	0	-0.74841	0.0550162	-0.345971	-0.0199907
2.14	-13.5984	116.688	9.20689	-0.0829561	0	-0.410302	0.0400989	-0.344089	-0.0271493	-30.5665	235.066	4.60899	-0.0649804	0	-0.744865	0.017838	-0.13718	-0.00268971
2.15	1.13891	20.9945	13.3262	0.0611154	0	-0.499048	-0.0717706	-1.32301	-0.839777	-8.68834	122.383	-7.92028	-0.0542461	0	-0.729138	-0.0154297	0.217341	-0.0140657
2.16	0	0	0	0	0	0	0	0	0	0.292277	23.8137	-8.17874	0.0305258	0	-0.587163	0.00945344	0.770232	-0.264534
2.17	0	0	0	0	0	0	0	0	0	0	0	0	0	0	0	0	0	0
2.18	0	0	0	0	0	0	0	0	0	0	0	0	0	0	0	0	0	0
2.19	0	0	0	0	0	0	0	0	0	0	0	0	0	0	0	0	0	0
2.2	0	0	0	0	0	0	0	0	0	0	0	0	0	0	0	0	0	0
2.21	0	0	0	0	0	0	0	0	0	0	0	0	0	0	0	0	0	0
2.22	0	0	0	0	0	0	0	0	0	0	0	0	0	0	0	0	0	0
2.23	0	0	0	0	0	0	0	0	0	0	0	0	0	0	0	0	0	0
2.24	0	0	0	0	0	0	0	0	0	0	0	0	0	0	0	0	0	0
2.25	0	0	0	0	0	0	0	0	0	0	0	0	0	0	0	0	0	0
2.26	0	0	0	0	0	0	0	0	0	0	0	0	0	0	0	0	0	0
